<svg xmlns="http://www.w3.org/2000/svg" viewBox="0 0 800 400" width="800" height="400" preserveAspectRatio="xMidYMid slice">
  <defs>
    <linearGradient id="bg" x1="0" y1="0" x2="1" y2="1">
      <stop offset="0" stop-color="#200404"/>
      <stop offset="1" stop-color="#050505"/>
    </linearGradient>
    <radialGradient id="glow" cx="0.5" cy="0.5" r="0.5">
      <stop offset="0" stop-color="#ff2a2a" stop-opacity="0.22"/>
      <stop offset="1" stop-color="#ff2a2a" stop-opacity="0"/>
    </radialGradient>
  </defs>

  <rect width="800" height="400" fill="url(#bg)"/>
  <ellipse cx="640" cy="100" rx="280" ry="200" fill="url(#glow)"/>

  <g stroke="#ff2a2a" stroke-opacity="0.04" stroke-width="1">
    <line x1="80" y1="0" x2="80" y2="400"/>
    <line x1="160" y1="0" x2="160" y2="400"/>
    <line x1="240" y1="0" x2="240" y2="400"/>
    <line x1="320" y1="0" x2="320" y2="400"/>
    <line x1="400" y1="0" x2="400" y2="400"/>
    <line x1="480" y1="0" x2="480" y2="400"/>
    <line x1="560" y1="0" x2="560" y2="400"/>
    <line x1="640" y1="0" x2="640" y2="400"/>
    <line x1="720" y1="0" x2="720" y2="400"/>
    <line x1="0" y1="80" x2="800" y2="80"/>
    <line x1="0" y1="160" x2="800" y2="160"/>
    <line x1="0" y1="240" x2="800" y2="240"/>
    <line x1="0" y1="320" x2="800" y2="320"/>
  </g>

  <g stroke="#ff2a2a" stroke-opacity="0.35" stroke-width="1" fill="none">
    <path d="M 24 24 L 24 44 M 24 24 L 44 24"/>
    <path d="M 776 24 L 776 44 M 776 24 L 756 24"/>
    <path d="M 24 376 L 24 356 M 24 376 L 44 376"/>
    <path d="M 776 376 L 776 356 M 776 376 L 756 376"/>
  </g>
  <g fill="#ff2a2a" fill-opacity="0.4">
    <circle cx="800" cy="200" r="2"/>
    <circle cx="0" cy="200" r="2"/>
    <circle cx="400" cy="0" r="2"/>
    <circle cx="400" cy="400" r="2"/>
  </g>

  <g transform="translate(60 70)">
    <text x="0" y="0" font-family="JetBrains Mono, monospace" font-size="10" letter-spacing="3" font-weight="700" fill="#ff2a2a">APP · DESKTOP</text>
  </g>

  <g transform="translate(740 70)">
    <text x="0" y="0" text-anchor="end" font-family="JetBrains Mono, monospace" font-size="10" letter-spacing="2" fill="#475569">CODWAY / 002</text>
  </g>

  <g transform="translate(60 110)">
    <text x="0" y="0" font-family="Inter, sans-serif" font-size="34" font-weight="900" fill="#ffffff" letter-spacing="-0.025em">SoundPad Pro</text>
    <text x="0" y="24" font-family="Inter, sans-serif" font-size="13" font-weight="400" fill="#94a3b8">Soundboard для стримов: пэды, эффекты, запись голоса</text>
  </g>

  <line x1="60" y1="220" x2="500" y2="220" stroke="#ff2a2a" stroke-opacity="0.25" stroke-width="1"/>
  <text x="60" y="240" font-family="JetBrains Mono, monospace" font-size="9" letter-spacing="2" fill="#64748b" font-weight="700">— ЧТО ВНУТРИ</text>

  
    <g transform="translate(60 252)">
      <path d="M 0 0 L 8 0 M 6 -3 L 9 0 L 6 3" stroke="#ff2a2a" stroke-width="1.4" fill="none" stroke-linecap="round" stroke-linejoin="round"/>
      <text x="20" y="3.5" font-family="Inter, sans-serif" font-size="12.5" fill="#cbd5e1" font-weight="500">12 пэдов с drag&amp;drop mp3 / wav</text>
    </g>
    <g transform="translate(60 274)">
      <path d="M 0 0 L 8 0 M 6 -3 L 9 0 L 6 3" stroke="#ff2a2a" stroke-width="1.4" fill="none" stroke-linecap="round" stroke-linejoin="round"/>
      <text x="20" y="3.5" font-family="Inter, sans-serif" font-size="12.5" fill="#cbd5e1" font-weight="500">Эффекты: робот, бурундук, мегафон, пещера</text>
    </g>
    <g transform="translate(60 296)">
      <path d="M 0 0 L 8 0 M 6 -3 L 9 0 L 6 3" stroke="#ff2a2a" stroke-width="1.4" fill="none" stroke-linecap="round" stroke-linejoin="round"/>
      <text x="20" y="3.5" font-family="Inter, sans-serif" font-size="12.5" fill="#cbd5e1" font-weight="500">Раздельная громкость и усилитель до ×4</text>
    </g>
    <g transform="translate(60 318)">
      <path d="M 0 0 L 8 0 M 6 -3 L 9 0 L 6 3" stroke="#ff2a2a" stroke-width="1.4" fill="none" stroke-linecap="round" stroke-linejoin="round"/>
      <text x="20" y="3.5" font-family="Inter, sans-serif" font-size="12.5" fill="#cbd5e1" font-weight="500">Хоткеи F1–F12, автозапуск с Windows</text>
    </g>

  <g transform="translate(560 110)" stroke="#ffffff" stroke-width="1.4" fill="none" stroke-linecap="round" stroke-linejoin="round" opacity="0.92">
    <rect x="44" y="60" width="88" height="72" rx="8" stroke-width="1.6"/>
    <rect x="56" y="72" width="16" height="16" rx="3" stroke-width="1.3"/>
    <rect x="80" y="72" width="16" height="16" rx="3" stroke-width="1.3"/>
    <rect x="104" y="72" width="16" height="16" rx="3" stroke-width="1.3"/>
    <rect x="56" y="96" width="16" height="16" rx="3" stroke-width="1.3"/>
    <rect x="80" y="96" width="16" height="16" rx="3" stroke-width="1.3" fill="#ff2a2a" fill-opacity="0.55"/>
    <rect x="104" y="96" width="16" height="16" rx="3" stroke-width="1.3"/>
    <path d="M 148 78 L 164 70 L 164 122 L 148 114 Z" stroke-width="1.4"/>
    <path d="M 44 150 q 22 12 44 0 q 22 -12 44 0" stroke-width="1.4"/>
    <path d="M 44 160 q 22 12 44 0 q 22 -12 44 0" stroke-width="1.4" stroke-opacity="0.5"/>
  </g>

  <g transform="translate(60 360)">
    <text x="0" y="0" font-family="JetBrains Mono, monospace" font-size="10" letter-spacing="1.5" fill="#475569">.EXE · WINDOWS</text>
  </g>
  <g transform="translate(740 360)">
    <text x="0" y="0" text-anchor="end" font-family="JetBrains Mono, monospace" font-size="10" letter-spacing="1.5" fill="#ff2a2a" font-weight="700">4 900 ₽</text>
  </g>
</svg>
